<svg
 viewBox="0 0 960 540"
 width="960"
 height="540"
 xmlns="http://www.w3.org/2000/svg"
 xmlns:xlink="http://www.w3.org/1999/xlink"
 version="1.1"
>
 <path
  d="M0 368L22.8 376.2C45.7 384.3 91.3 400.7 137 399.2C182.7 397.7 228.3 378.3 274 383C319.7 387.7 365.3 416.3 411.2 420.2C457 424 503 403 548.8 386.5C594.7 370 640.3 358 686 365.7C731.7 373.3 777.3 400.7 823 400.3C868.7 400 914.3 372 937.2 358L960 344L960 541L937.2 541C914.3 541 868.7 541 823 541C777.3 541 731.7 541 686 541C640.3 541 594.7 541 548.8 541C503 541 457 541 411.2 541C365.3 541 319.7 541 274 541C228.3 541 182.7 541 137 541C91.3 541 45.7 541 22.8 541L0 541Z"
  fill="#3b1c94"
 ></path>
</svg>
