<svg
 viewBox="0 0 237 237"
 fill="none"
 xmlns="http://www.w3.org/2000/svg"
>
 <g filter="url(#filter0_d)">
  <path
   d="M118.5 186.422C156.013 186.422 186.422 156.013 186.422 118.501C186.422 80.9883 156.013 50.5787 118.5 50.5787C80.9882 50.5787 50.5786 80.9883 50.5786 118.501C50.5786 156.013 80.9882 186.422 118.5 186.422Z"
   fill="#200F50"
  />
  <path
   d="M160.638 171.733C148.654 181.247 133.803 186.425 118.501 186.425C103.2 186.425 88.3485 181.247 76.3641 171.733L78.2509 165.042C79.675 160.293 82.5992 156.133 86.5855 153.185C90.5718 150.237 95.4057 148.66 100.363 148.69H136.639C141.597 148.66 146.431 150.237 150.417 153.185C154.403 156.133 157.327 160.293 158.752 165.042L160.638 171.733Z"
   fill="#F7941E"
  />
  <path
   d="M118.502 76.2641C147.306 76.2641 144.841 103.408 144.841 103.408C149.067 102.98 152.388 104.641 152.388 110.603C152.388 116.565 149.872 117.797 146.476 118.15C146.3 118.161 146.134 118.237 146.009 118.362C145.884 118.487 145.809 118.653 145.797 118.829C144.816 128.112 138.25 134.904 131.76 139.457C127.873 142.199 123.233 143.671 118.477 143.671C113.721 143.671 109.081 142.199 105.194 139.457C98.7291 134.904 92.1381 128.087 91.157 118.829C91.1452 118.653 91.0699 118.487 90.945 118.362C90.82 118.237 90.654 118.161 90.4778 118.15C87.1823 117.823 84.566 116.565 84.566 110.603C84.566 104.641 87.7609 103.056 91.962 103.408C92.0123 103.408 89.6728 76.2641 118.502 76.2641Z"
   fill="#FFD2B4"
  />
  <path
   d="M128.565 136.111V150.602C128.569 151.542 128.31 152.465 127.816 153.265C127.322 154.066 126.614 154.712 125.772 155.13C123.515 156.259 121.026 156.847 118.502 156.847C115.978 156.847 113.489 156.259 111.231 155.13C110.389 154.712 109.681 154.066 109.188 153.265C108.694 152.465 108.435 151.542 108.439 150.602V136.111H128.565Z"
   fill="#FFD2B4"
  />
  <path
   opacity="0.2"
   d="M128.565 148.69V150.602C128.569 151.542 128.31 152.465 127.816 153.265C127.323 154.066 126.615 154.712 125.772 155.13C123.514 156.255 121.025 156.841 118.502 156.841C115.979 156.841 113.49 156.255 111.232 155.13C110.389 154.712 109.681 154.066 109.188 153.265C108.694 152.465 108.435 151.542 108.439 150.602V148.69H103.408V150.602C103.409 152.474 103.932 154.309 104.919 155.9C105.905 157.491 107.316 158.775 108.993 159.608C111.942 161.096 115.199 161.872 118.502 161.872C121.805 161.872 125.062 161.096 128.011 159.608C129.688 158.775 131.099 157.491 132.085 155.9C133.072 154.309 133.595 152.474 133.596 150.602V148.69H128.565Z"
   fill="white"
  />
  <path
   opacity="0.1"
   d="M128.565 141.344V145.118C125.429 146.64 121.988 147.431 118.502 147.431C115.016 147.431 111.575 146.64 108.439 145.118V141.344C111.575 142.866 115.016 143.657 118.502 143.657C121.988 143.657 125.429 142.866 128.565 141.344Z"
   fill="#262234"
  />
  <path
   d="M108.539 113.092C110.901 113.092 112.816 111.178 112.816 108.816C112.816 106.454 110.901 104.539 108.539 104.539C106.177 104.539 104.262 106.454 104.262 108.816C104.262 111.178 106.177 113.092 108.539 113.092Z"
   fill="#262234"
  />
  <path
   d="M128.463 113.092C130.825 113.092 132.74 111.178 132.74 108.816C132.74 106.454 130.825 104.539 128.463 104.539C126.101 104.539 124.186 106.454 124.186 108.816C124.186 111.178 126.101 113.092 128.463 113.092Z"
   fill="#262234"
  />
  <path
   d="M128.237 119.834C128.628 119.822 129.016 119.9 129.371 120.064C129.726 120.228 130.038 120.472 130.282 120.777C130.526 121.082 130.695 121.44 130.777 121.822C130.859 122.204 130.851 122.6 130.753 122.979C130.053 125.676 128.478 128.065 126.275 129.77C124.071 131.475 121.363 132.401 118.577 132.401C115.79 132.401 113.082 131.475 110.879 129.77C108.675 128.065 107.1 125.676 106.401 122.979C106.303 122.6 106.294 122.204 106.376 121.822C106.458 121.44 106.627 121.082 106.872 120.777C107.116 120.472 107.428 120.228 107.783 120.064C108.137 119.9 108.526 119.822 108.916 119.834H128.237Z"
   fill="#611C24"
  />
  <path
   d="M124.589 130.853C122.725 131.883 120.631 132.424 118.501 132.424C116.371 132.424 114.277 131.883 112.413 130.853C112.916 127.758 115.457 126.903 118.501 126.903C121.545 126.903 124.086 127.758 124.589 130.853Z"
   fill="#BE1E2D"
  />
  <path
   d="M125.721 119.834V122.224C125.721 122.467 125.627 122.7 125.457 122.874C125.288 123.047 125.058 123.148 124.816 123.155H112.237C111.994 123.148 111.764 123.047 111.595 122.874C111.426 122.7 111.331 122.467 111.331 122.224L111.331 119.834H125.721Z"
   fill="white"
  />
  <path
   d="M137.091 90.6776C141.695 98.9038 140.563 108.287 140.789 109.746C141.016 111.205 145.821 111.432 146.299 109.746C146.715 107.999 146.935 106.21 146.953 104.413C146.953 89.3192 140.714 72.414 118.501 72.414C96.2875 72.414 90.0487 89.1431 90.0487 104.262C90.1061 106.072 90.3677 107.869 90.8286 109.62C91.2814 111.432 96.036 111.356 96.3378 109.62C96.6397 107.885 95.4322 98.778 100.036 90.5518C112.014 94.8078 125.085 94.8522 137.091 90.6776Z"
   fill="#FF4034"
  />
 </g>
 <defs>
  <filter
   id="filter0_d"
   x="-12.3125"
   y="-12.3125"
   width="261.625"
   height="261.625"
   filterUnits="userSpaceOnUse"
   color-interpolation-filters="sRGB"
  >
   <feFlood flood-opacity="0" result="BackgroundImageFix" />
   <feColorMatrix
    in="SourceAlpha"
    type="matrix"
    values="0 0 0 0 0 0 0 0 0 0 0 0 0 0 0 0 0 0 127 0"
   />
   <feMorphology
    radius="16.7708"
    operator="dilate"
    in="SourceAlpha"
    result="effect1_dropShadow"
   />
   <feOffset />
   <feGaussianBlur stdDeviation="16.7708" />
   <feColorMatrix
    type="matrix"
    values="0 0 0 0 0 0 0 0 0 0 0 0 0 0 0 0 0 0 0.25 0"
   />
   <feBlend
    mode="normal"
    in2="BackgroundImageFix"
    result="effect1_dropShadow"
   />
   <feBlend
    mode="normal"
    in="SourceGraphic"
    in2="effect1_dropShadow"
    result="shape"
   />
  </filter>
 </defs>
</svg>
