<svg viewBox="0 0 900 600" width="900" height="600" xmlns="http://www.w3.org/2000/svg" xmlns:xlink="http://www.w3.org/1999/xlink" version="1.1"><g transform="translate(448.11450597407986 295.63817283602634)"><path d="M156.5 -206.1C204 -180.8 244.7 -136.8 253.1 -87.7C261.5 -38.6 237.8 15.5 213.1 62.5C188.5 109.5 163 149.4 127.4 183.1C91.7 216.9 45.8 244.4 -0.7 245.4C-47.2 246.3 -94.4 220.6 -137.9 189.4C-181.3 158.2 -220.9 121.4 -239 75.4C-257.1 29.4 -253.6 -26 -236.6 -76.5C-219.7 -127 -189.2 -172.7 -147.5 -199.8C-105.8 -227 -52.9 -235.5 0.8 -236.6C54.5 -237.6 108.9 -231.3 156.5 -206.1" fill="#BB004B"></path></g></svg>