<svg
 width="172"
 height="217"
 viewBox="0 0 172 217"
 fill="none"
 xmlns="http://www.w3.org/2000/svg"
>
 <path
  d="M72.9248 41.3724C70.4887 41.3724 70.5338 40.8311 59.9323 30.2747C57.0902 27.4326 58.4887 26.5754 67.9624 2.84616C68.4051 1.73345 69.2717 0.84217 70.3715 0.368394C71.4713 -0.105381 72.7143 -0.122844 73.8271 0.319847C74.9398 0.762539 75.831 1.62912 76.3048 2.72896C76.7786 3.82879 76.7961 5.07179 76.3534 6.1845L68.4135 25.989L76.1278 33.6581C76.764 34.2891 77.1979 35.0953 77.3742 35.9739C77.5504 36.8524 77.461 37.7636 77.1174 38.5911C76.7738 39.4187 76.1916 40.1252 75.4448 40.6205C74.6981 41.1159 73.8208 41.3776 72.9248 41.3724ZM98.4586 41.3724C97.5625 41.3776 96.6852 41.1159 95.9385 40.6205C95.1918 40.1252 94.6096 39.4187 94.2659 38.5911C93.9223 37.7636 93.833 36.8524 94.0092 35.9739C94.1855 35.0953 94.6194 34.2891 95.2556 33.6581L102.97 25.989L95.03 6.1845C94.5873 5.07179 94.6048 3.82879 95.0786 2.72896C95.5523 1.62912 96.4436 0.762539 97.5563 0.319847C98.669 -0.122844 99.912 -0.105381 101.012 0.368394C102.112 0.84217 102.978 1.73345 103.421 2.84616C112.94 26.7108 114.248 27.4777 111.451 30.2747C100.804 40.9213 100.85 41.3724 98.4586 41.3724ZM50.9098 78.0039C48.2481 78.0039 48.7895 77.7333 28.3534 57.3423C27.0903 56.0792 27.9474 58.2446 18.158 19.1318C17.8708 17.9533 18.0636 16.709 18.6939 15.6726C19.3242 14.6362 20.3403 13.8927 21.5188 13.6055C22.6974 13.3184 23.9417 13.5112 24.9781 14.1415C26.0145 14.7717 26.758 15.7879 27.0452 16.9664L35.7519 51.8386L54.1128 70.2897C54.749 70.9207 55.1829 71.7268 55.3592 72.6054C55.5354 73.484 55.446 74.3951 55.1024 75.2227C54.7588 76.0502 54.1765 76.7567 53.4298 77.2521C52.6831 77.7474 51.8058 78.0092 50.9098 78.0039ZM4.4888 162.41C3.74993 162.406 3.02328 162.221 2.37269 161.871C1.72211 161.521 1.16753 161.016 0.757669 160.401C0.347813 159.786 0.095234 159.08 0.0221335 158.345C-0.050967 157.61 0.0576477 156.868 0.338431 156.184L22.8948 102.049C23.2709 101.101 23.9575 100.308 24.8424 99.7996C25.7273 99.2916 26.7582 99.0986 27.767 99.252L49.1504 102.816C50.3469 103.007 51.4183 103.666 52.1289 104.648C52.8396 105.629 53.1313 106.853 52.9399 108.049C52.7484 109.245 52.0895 110.317 51.1081 111.028C50.1267 111.738 48.9032 112.03 47.7068 111.838L29.6617 108.861C6.47376 164.846 8.59406 162.41 4.4888 162.41ZM13.5113 210.951C28.0828 153.387 26.7294 154.244 30.6542 153.387L48.1579 149.869C49.3544 149.629 50.5969 149.875 51.6121 150.552C52.6274 151.229 53.3321 152.281 53.5714 153.478C53.8107 154.674 53.5649 155.917 52.8881 156.932C52.2113 157.947 51.1589 158.652 49.9624 158.891L35.2557 161.868L22.5339 213.117C22.2467 214.313 21.4961 215.346 20.447 215.989C19.3979 216.632 18.1364 216.832 16.9399 216.545C15.7434 216.258 14.7101 215.507 14.0671 214.458C13.4241 213.409 13.2242 212.148 13.5113 210.951ZM120.474 78.0039C119.578 78.0092 118.7 77.7474 117.954 77.2521C117.207 76.7567 116.625 76.0502 116.281 75.2227C115.937 74.3951 115.848 73.484 116.024 72.6054C116.2 71.7268 116.634 70.9207 117.271 70.2897L135.767 51.8386L144.338 16.9664C144.625 15.77 145.376 14.7366 146.425 14.0936C146.945 13.7752 147.522 13.5623 148.123 13.4669C148.725 13.3716 149.34 13.3957 149.932 13.5379C150.525 13.6801 151.083 13.9375 151.576 14.2956C152.069 14.6537 152.487 15.1053 152.805 15.6248C153.123 16.1442 153.336 16.7213 153.432 17.323C153.527 17.9248 153.503 18.5394 153.361 19.1318C143.616 58.1995 144.338 56.0792 143.165 57.3423C122.233 78.0942 123.045 78.0039 120.474 78.0039ZM166.895 162.41C162.654 162.41 163.917 162.41 141.541 108.816L123.496 111.793C122.3 111.985 121.076 111.693 120.095 110.982C119.113 110.272 118.455 109.2 118.263 108.004C118.072 106.807 118.363 105.584 119.074 104.603C119.785 103.621 120.856 102.962 122.053 102.771L143.616 99.252C144.62 99.0954 145.647 99.2819 146.531 99.7813C147.415 100.281 148.105 101.064 148.489 102.004L171.045 156.139C171.335 156.825 171.451 157.572 171.383 158.313C171.315 159.055 171.064 159.768 170.653 160.388C170.242 161.009 169.684 161.519 169.028 161.872C168.372 162.224 167.639 162.409 166.895 162.41ZM148.849 213.117L136.128 161.778L121.421 158.801C120.224 158.562 119.172 157.857 118.495 156.842C117.818 155.826 117.573 154.584 117.812 153.387C118.051 152.191 118.756 151.138 119.771 150.462C120.786 149.785 122.029 149.539 123.225 149.778L140.729 153.387C144.699 154.199 143.436 153.387 157.737 210.861C157.885 211.444 157.917 212.051 157.83 212.647C157.744 213.243 157.541 213.816 157.233 214.333C156.925 214.851 156.518 215.302 156.036 215.662C155.553 216.023 155.004 216.284 154.421 216.432C153.837 216.58 153.23 216.612 152.635 216.526C152.039 216.439 151.466 216.236 150.948 215.928C150.431 215.62 149.979 215.214 149.619 214.731C149.259 214.249 148.998 213.7 148.849 213.117V213.117Z"
  fill="#425B72"
 />
 <path
  d="M124.444 139.853C124.697 145.1 123.882 150.343 122.049 155.265C120.216 160.187 117.402 164.685 113.779 168.488C110.156 172.29 105.798 175.317 100.97 177.386C96.142 179.454 90.9443 180.521 85.692 180.521C80.4396 180.521 75.2419 179.454 70.4139 177.386C65.586 175.317 61.2282 172.29 57.6049 168.488C53.9815 164.685 51.168 160.187 49.3348 155.265C47.5016 150.343 46.6869 145.1 46.9401 139.853L49.6018 81.2068H121.782C122.098 87.2068 121.782 77.688 124.444 139.853Z"
  fill="#A87E6B"
 />
 <path
  d="M124.445 139.853C124.9 149.661 121.619 159.276 115.265 166.76C108.911 174.245 99.9556 179.042 90.2044 180.184C80.3255 178.787 71.3307 173.733 64.9987 166.023C58.6667 158.313 55.4586 148.507 56.0089 138.545L57.9939 94.3346C58.0985 92.0127 59.095 89.8208 60.7759 88.2156C62.4567 86.6104 64.6922 85.7157 67.0164 85.7181H122.009L124.445 139.853Z"
  fill="#BE927C"
 />
 <path
  d="M121.782 81.2068H49.6021L52.2186 65.4625C52.7471 62.2683 54.4032 59.3694 56.8863 57.2919C59.3694 55.2143 62.5151 54.0958 65.7524 54.1392H105.993C109.23 54.0958 112.376 55.2143 114.859 57.2919C117.342 59.3694 118.998 62.2683 119.527 65.4625L121.782 81.2068Z"
  fill="#9DCC6B"
 />
 <path
  d="M121.782 81.2068H58.6245L61.241 65.4625C61.7696 62.2683 63.4256 59.3694 65.9088 57.2919C68.3919 55.2143 71.5375 54.0958 74.7749 54.1392H105.993C109.23 54.0958 112.376 55.2143 114.859 57.2919C117.342 59.3694 118.998 62.2683 119.527 65.4625L121.782 81.2068Z"
  fill="#B5E08C"
 />
 <path
  d="M90.2032 99.2519V180.184C87.1093 179.834 84.0755 179.075 81.1807 177.928V99.2519C81.1807 98.0554 81.656 96.9079 82.502 96.0619C83.348 95.2159 84.4955 94.7406 85.6919 94.7406C86.8884 94.7406 88.0359 95.2159 88.8819 96.0619C89.7279 96.9079 90.2032 98.0554 90.2032 99.2519Z"
  fill="#A87E6B"
 />
 <path
  d="M85.692 108.274L72.1582 81.2068H99.2258L85.692 108.274Z"
  fill="#A87E6B"
 />
 <path
  d="M103.737 49.6278V54.1391H67.647V49.6278C67.647 44.842 69.5481 40.2522 72.9323 36.868C76.3164 33.4839 80.9062 31.5828 85.6921 31.5828C90.4779 31.5828 95.0677 33.4839 98.4519 36.868C101.836 40.2522 103.737 44.842 103.737 49.6278V49.6278Z"
  fill="#9DCC6B"
 />
 <path
  d="M103.737 49.6277H91.1956C89.2142 49.6564 87.2618 49.1497 85.5445 48.1611C83.8271 47.1724 82.4085 45.7385 81.4383 44.0106C80.4681 42.2828 79.9824 40.3251 80.0323 38.3441C80.0822 36.3631 80.666 34.4324 81.7219 32.7556C84.3836 28.9661 103.737 33.1165 103.737 49.6277Z"
  fill="#B5E08C"
 />
</svg>
