<svg
   width="100mm"
   height="100mm"
   viewBox="0 0 100 100"
   version="1.1"
   id="svg5"
   inkscape:version="1.1 (c68e22c387, 2021-05-23)"
   sodipodi:docname="debuggg.svg"
   xmlns:inkscape="http://www.inkscape.org/namespaces/inkscape"
   xmlns:sodipodi="http://sodipodi.sourceforge.net/DTD/sodipodi-0.dtd"
   xmlns="http://www.w3.org/2000/svg"
   xmlns:svg="http://www.w3.org/2000/svg">
  <sodipodi:namedview
     id="namedview7"
     pagecolor="#ffffff"
     bordercolor="#666666"
     borderopacity="1.0"
     inkscape:pageshadow="2"
     inkscape:pageopacity="0.0"
     inkscape:pagecheckerboard="0"
     inkscape:document-units="mm"
     showgrid="false"
     inkscape:zoom="0.77771465"
     inkscape:cx="-216.66044"
     inkscape:cy="158.7986"
     inkscape:window-width="1902"
     inkscape:window-height="1033"
     inkscape:window-x="0"
     inkscape:window-y="0"
     inkscape:window-maximized="0"
     inkscape:current-layer="layer2"
     fit-margin-top="0"
     fit-margin-left="0"
     fit-margin-right="0"
     fit-margin-bottom="0" />
  <defs
     id="defs2">
    <clipPath
       clipPathUnits="userSpaceOnUse"
       id="clipPath135">
      <rect
         style="fill:#ffffff;stroke-width:0.264583"
         id="rect137"
         width="139.69073"
         height="108.81783"
         x="201.40207"
         y="59.536083" />
    </clipPath>
    <clipPath
       clipPathUnits="userSpaceOnUse"
       id="clipPath333">
      <rect
         style="fill:#55ff99;stroke-width:0.513847"
         id="rect335"
         width="111.68427"
         height="107.81107"
         x="229.40857"
         y="60.542839" />
    </clipPath>
  </defs>
  <g
     inkscape:label="Layer 1"
     inkscape:groupmode="layer"
     id="layer1"
     transform="translate(-52.601349,-96.006805)">
    <g
       id="g4737"
       style="fill:#e6e6e6"
       transform="matrix(0.13009586,0,0,0.13009586,69.439775,114.05477)" />
    <g
       id="g4739"
       style="fill:#e6e6e6"
       transform="matrix(0.13009586,0,0,0.13009586,69.439775,114.05477)" />
    <g
       id="g4741"
       style="fill:#e6e6e6"
       transform="matrix(0.13009586,0,0,0.13009586,69.439775,114.05477)" />
    <g
       id="g4743"
       style="fill:#e6e6e6"
       transform="matrix(0.13009586,0,0,0.13009586,69.439775,114.05477)" />
    <g
       id="g4745"
       style="fill:#e6e6e6"
       transform="matrix(0.13009586,0,0,0.13009586,69.439775,114.05477)" />
    <g
       id="g4747"
       style="fill:#e6e6e6"
       transform="matrix(0.13009586,0,0,0.13009586,69.439775,114.05477)" />
    <g
       id="g4749"
       style="fill:#e6e6e6"
       transform="matrix(0.13009586,0,0,0.13009586,69.439775,114.05477)" />
    <g
       id="g4751"
       style="fill:#e6e6e6"
       transform="matrix(0.13009586,0,0,0.13009586,69.439775,114.05477)" />
    <g
       id="g4753"
       style="fill:#e6e6e6"
       transform="matrix(0.13009586,0,0,0.13009586,69.439775,114.05477)" />
    <g
       id="g4755"
       style="fill:#e6e6e6"
       transform="matrix(0.13009586,0,0,0.13009586,69.439775,114.05477)" />
    <g
       id="g4757"
       style="fill:#e6e6e6"
       transform="matrix(0.13009586,0,0,0.13009586,69.439775,114.05477)" />
    <g
       id="g4759"
       style="fill:#e6e6e6"
       transform="matrix(0.13009586,0,0,0.13009586,69.439775,114.05477)" />
    <g
       id="g4761"
       style="fill:#e6e6e6"
       transform="matrix(0.13009586,0,0,0.13009586,69.439775,114.05477)" />
    <g
       id="g4763"
       style="fill:#e6e6e6"
       transform="matrix(0.13009586,0,0,0.13009586,69.439775,114.05477)" />
    <g
       id="g4765"
       style="fill:#e6e6e6"
       transform="matrix(0.13009586,0,0,0.13009586,69.439775,114.05477)" />
  </g>
  <g
     inkscape:groupmode="layer"
     id="layer2"
     inkscape:label="Layer 2">
    <path
       d="m 53.192315,44.941256 a 4.5432201,4.5432201 0 1 0 4.54322,-4.54322 4.5518084,4.5518084 0 0 0 -4.54322,4.54322 z m 5.651113,0 a 1.107893,1.107893 0 1 1 -1.107893,-1.107893 1.107893,1.107893 0 0 1 1.107893,1.107893 z M 76.913249,3.7516838 C 69.544472,1.9051955 63.901947,2.6352025 60.157441,5.9073516 A 13.329069,13.329069 0 0 0 56.163873,12.649181 8.8202024,8.8202024 0 0 0 43.779519,13.00989 13.492247,13.492247 0 0 0 39.69148,5.9073516 C 35.946973,2.6352025 30.304448,1.9051955 22.935671,3.7516838 a 1.7205811,1.7205811 0 1 0 0.858832,3.3322673 c 6.209354,-1.5544855 10.804104,-1.082128 13.655426,1.3998958 3.435327,3.0059111 3.538387,8.2619621 3.435327,9.9366841 A 16.661337,16.661337 0 0 0 30.95716,31.474774 H 69.346941 A 16.661337,16.661337 0 0 0 58.955076,18.214411 v 0 c -0.05153,-1.872253 0.163178,-6.870654 3.435327,-9.7219758 2.851322,-2.4820238 7.446072,-2.9543813 13.655426,-1.3998958 A 1.7205811,1.7205811 0 0 0 76.904661,3.7602721 Z M 6.1970401,41.377104 A 1.7176636,1.7176636 0 0 0 3.7665462,43.79901 L 16.709141,56.741605 a 1.7176636,1.7176636 0 0 0 2.430494,0 l 4.689222,-4.689222 v -4.860988 l -5.908763,5.882998 z M 20.075762,66.815701 a 1.7176636,1.7176636 0 0 0 -2.430494,0 L 4.7112611,79.698178 a 1.7186188,1.7186188 0 1 0 2.430494,2.430494 l 11.7230539,-11.705877 5.041342,5.041342 c -0.05153,-0.6613 -0.07729,-1.322601 -0.07729,-1.983901 V 70.534443 Z M 93.875177,41.377104 82.143534,53.074393 76.475245,47.406103 v 4.860988 l 4.457337,4.457337 a 1.7176636,1.7176636 0 0 0 2.430494,0 L 96.322847,43.79901 a 1.7186188,1.7186188 0 0 0 -2.430494,-2.430494 z m -0.944715,40.777333 a 1.7277521,1.7277521 0 0 0 2.430494,-2.456259 L 82.418361,66.815701 a 1.7176636,1.7176636 0 0 0 -2.413318,0 l -0.644124,0.644124 c 0,0.300591 0,0.601182 0,0.858832 0,0.25765 -0.04294,0.541064 -0.07729,0.807302 l 1.58025,1.674722 0.377886,-0.377886 z"
       id="path854"
       style="fill:#784421;stroke-width:0.858832" />
    <path
       d="m 67.122567,51.159198 a 5.4793468,5.4793468 0 0 0 -4.620515,2.576495 8.4509047,8.4509047 0 0 1 7.549131,-0.798713 10.529278,10.529278 0 0 1 1.588839,0.790125 c 0.188943,0.120237 1.374131,0.721419 1.374131,0.927538 V 38.474253 A 3.6070935,3.6070935 0 0 0 69.415647,34.867159 H 30.862689 a 3.6156818,3.6156818 0 0 0 -3.607094,3.607094 v 35.005983 a 22.707512,22.707512 0 0 0 1.588839,8.37361 25.412832,25.412832 0 0 0 1.219541,2.576495 22.862102,22.862102 0 0 0 29.071456,10.099862 0.96189159,0.96189159 0 0 0 0.223296,-0.06871 22.947985,22.947985 0 0 0 9.309737,-7.463248 L 66.212205,84.42175 a 19.5556,19.5556 0 0 1 -6.870654,6.183589 12.023645,12.023645 0 0 1 -0.438005,-1.614604 6.6130047,6.6130047 0 0 1 2.628026,-6.157824 15.312971,15.312971 0 0 1 -3.546976,-0.858832 L 57.675417,81.81949 c -0.111648,0 -0.858832,1.228129 -0.927538,1.356954 a 9.756329,9.756329 0 0 0 -0.730007,1.58025 10.00539,10.00539 0 0 0 0.197531,7.214187 19.229244,19.229244 0 0 1 -4.345689,0.858832 V 38.345428 h 17.571698 a 0.16317804,0.16317804 0 0 1 0.163178,0.171766 v 13.234598 a 5.4879351,5.4879351 0 0 0 -2.482023,-0.592594 z m -35.985052,5.487935 a 2.052608,2.052608 0 1 1 2.052608,2.04402 2.052608,2.052608 0 0 1 -2.026843,-2.04402 z m 9.816447,33.975385 c -0.120236,0 -2.670967,-1.717663 -2.894263,-1.906606 a 19.813249,19.813249 0 0 1 -4.654868,-5.316169 c -0.188943,-0.317768 -0.858832,-1.202364 -0.609771,-1.451426 0.249062,-0.249061 1.253895,-0.292002 1.614604,-0.317767 a 6.4927683,6.4927683 0 0 1 6.544298,8.991968 z M 40.713489,73.334235 a 2.9801463,2.9801463 0 1 1 2.988735,-2.988735 2.9887346,2.9887346 0 0 1 -2.96297,2.988735 z m 1.502956,-27.130496 a 1.7176636,1.7176636 0 1 1 1.717664,-1.717664 1.7176636,1.7176636 0 0 1 -1.717664,1.717664 z"
       id="path856"
       style="fill:#784421;stroke-width:0.858832" />
    <path
       d="m 100.23053,112.27367 h 0.15459 a 6.5614748,6.5614748 0 0 0 4.74075,-11.1047 L 75.547706,70.251029 a 12.15247,12.15247 0 0 0 0.343533,-2.14708 12.384354,12.384354 0 0 0 -6.398297,-11.680112 5.0585192,5.0585192 0 0 0 -7.463248,4.294159 5.1529907,5.1529907 0 0 0 1.374131,3.615682 4.5861617,4.5861617 0 0 0 1.202364,0.910361 2.2071977,2.2071977 0 0 1 1.116482,2.576496 2.1384911,2.1384911 0 0 1 -1.631781,1.571662 2.2071977,2.2071977 0 0 1 -2.490612,-1.22813 4.9468711,4.9468711 0 0 0 -4.414395,-2.782615 5.0585192,5.0585192 0 0 0 -4.663457,7.257129 12.298471,12.298471 0 0 0 13.543777,6.664534 L 95.64437,110.22106 a 6.5099449,6.5099449 0 0 0 4.58616,2.05261 z"
       id="path858"
       style="fill:#26c526;stroke-width:0.858832;fill-opacity:1" />
  </g>
</svg>
