<?xml version="1.0" encoding="UTF-8" standalone="no"?>
<!-- Created with Inkscape (http://www.inkscape.org/) -->

<svg
   width="100mm"
   height="100mm"
   viewBox="0 0 100 100"
   version="1.1"
   id="svg5"
   inkscape:version="1.1 (c68e22c387, 2021-05-23)"
   sodipodi:docname="eloquence.svg"
   xmlns:inkscape="http://www.inkscape.org/namespaces/inkscape"
   xmlns:sodipodi="http://sodipodi.sourceforge.net/DTD/sodipodi-0.dtd"
   xmlns="http://www.w3.org/2000/svg"
   xmlns:svg="http://www.w3.org/2000/svg">
  <sodipodi:namedview
     id="namedview7"
     pagecolor="#ffffff"
     bordercolor="#666666"
     borderopacity="1.0"
     inkscape:pageshadow="2"
     inkscape:pageopacity="0.0"
     inkscape:pagecheckerboard="0"
     inkscape:document-units="mm"
     showgrid="false"
     inkscape:zoom="0.5499273"
     inkscape:cx="142.74614"
     inkscape:cy="295.4936"
     inkscape:window-width="1902"
     inkscape:window-height="1033"
     inkscape:window-x="0"
     inkscape:window-y="0"
     inkscape:window-maximized="0"
     inkscape:current-layer="layer2"
     fit-margin-top="0"
     fit-margin-left="0"
     fit-margin-right="0"
     fit-margin-bottom="0" />
  <defs
     id="defs2"><clipPath
   clipPathUnits="userSpaceOnUse"
   id="clipPath135">
  <rect
     style="fill:#ffffff;stroke-width:0.264583"
     id="rect137"
     width="139.69073"
     height="108.81783"
     x="201.40207"
     y="59.536083" />
</clipPath>
<clipPath
   clipPathUnits="userSpaceOnUse"
   id="clipPath333">
  <rect
     style="fill:#55ff99;stroke-width:0.513847"
     id="rect335"
     width="111.68427"
     height="107.81107"
     x="229.40857"
     y="60.542839" />
</clipPath>

	
	
</defs>
  <g
     inkscape:label="Layer 1"
     inkscape:groupmode="layer"
     id="layer1"
     transform="translate(-52.601349,-96.006805)">
    <g
       id="g4737"
       style="fill:#e6e6e6"
       transform="matrix(0.13009586,0,0,0.13009586,69.439775,114.05477)" />
    <g
       id="g4739"
       style="fill:#e6e6e6"
       transform="matrix(0.13009586,0,0,0.13009586,69.439775,114.05477)" />
    <g
       id="g4741"
       style="fill:#e6e6e6"
       transform="matrix(0.13009586,0,0,0.13009586,69.439775,114.05477)" />
    <g
       id="g4743"
       style="fill:#e6e6e6"
       transform="matrix(0.13009586,0,0,0.13009586,69.439775,114.05477)" />
    <g
       id="g4745"
       style="fill:#e6e6e6"
       transform="matrix(0.13009586,0,0,0.13009586,69.439775,114.05477)" />
    <g
       id="g4747"
       style="fill:#e6e6e6"
       transform="matrix(0.13009586,0,0,0.13009586,69.439775,114.05477)" />
    <g
       id="g4749"
       style="fill:#e6e6e6"
       transform="matrix(0.13009586,0,0,0.13009586,69.439775,114.05477)" />
    <g
       id="g4751"
       style="fill:#e6e6e6"
       transform="matrix(0.13009586,0,0,0.13009586,69.439775,114.05477)" />
    <g
       id="g4753"
       style="fill:#e6e6e6"
       transform="matrix(0.13009586,0,0,0.13009586,69.439775,114.05477)" />
    <g
       id="g4755"
       style="fill:#e6e6e6"
       transform="matrix(0.13009586,0,0,0.13009586,69.439775,114.05477)" />
    <g
       id="g4757"
       style="fill:#e6e6e6"
       transform="matrix(0.13009586,0,0,0.13009586,69.439775,114.05477)" />
    <g
       id="g4759"
       style="fill:#e6e6e6"
       transform="matrix(0.13009586,0,0,0.13009586,69.439775,114.05477)" />
    <g
       id="g4761"
       style="fill:#e6e6e6"
       transform="matrix(0.13009586,0,0,0.13009586,69.439775,114.05477)" />
    <g
       id="g4763"
       style="fill:#e6e6e6"
       transform="matrix(0.13009586,0,0,0.13009586,69.439775,114.05477)" />
    <g
       id="g4765"
       style="fill:#e6e6e6"
       transform="matrix(0.13009586,0,0,0.13009586,69.439775,114.05477)" />
  </g>
  <g
     inkscape:groupmode="layer"
     id="layer2"
     inkscape:label="Layer 2">
    <path
       d="M 38.681059,64.652549 H 16.568275 l 2.225631,-9.20393 c 0.299271,-1.236089 1.435096,-3.132889 2.383801,-3.979806 l 2.012912,-1.79684 c 0.987717,0.789622 2.237522,1.265041 3.597643,1.265041 3.184397,0 5.775116,-2.590729 5.775116,-5.775123 0,-3.184394 -2.590719,-5.775123 -5.775116,-5.775123 -3.184397,0 -5.775123,2.590729 -5.775123,5.775123 0,0.360222 0.03749,0.711301 0.100877,1.053236 l -2.574272,2.298468 c -1.558827,1.391211 -3.104853,3.972188 -3.596424,6.003691 L 12.492474,64.652549 H 11.62392 c -0.603111,0 -1.153805,0.252034 -1.511589,0.692101 -0.3577827,0.439762 -0.4921808,1.030684 -0.3693638,1.620996 l 2.8433708,13.639042 c 0.231616,1.110224 1.301308,1.979693 2.435,1.979693 h 3.694554 l 4.713958,49.414629 h -2.449012 c -2.322848,0 -4.212335,1.88949 -4.212335,4.21203 v 6.45168 c 0,2.32255 1.889487,4.21203 4.212335,4.21203 h 55.7633 c 2.322854,0 4.212352,-1.88948 4.212352,-4.21203 v -6.45168 c 0,-2.32254 -1.889498,-4.21203 -4.212352,-4.21203 h -2.449014 l 4.714261,-49.414629 h 3.694253 c 1.134008,0 2.203395,-0.869772 2.435003,-1.979693 l 2.84338,-13.639042 C 88.10486,66.375029 87.970109,65.784412 87.612654,65.34465 87.254872,64.904886 86.703867,64.652549 86.10106,64.652549 H 72.70338 c -34.022321,0 13.39768,0 -34.022321,0 z"
       id="path1948-4"
       style="stroke-width:0.304756"
       sodipodi:nodetypes="cccccssssccccscccsccssssssssccscccscc" />
    <g
       id="g6021"
       style="fill:#00d2c7;fill-opacity:1">
      <path
         d="m 55.690394,34.493 c 7.753902,0 14.062348,-6.308141 14.062348,-14.062043 0,-7.753902 -6.308446,-14.0626519 -14.062348,-14.0626519 -7.752074,0 -14.05869,6.3084449 -14.05869,14.0626519 0,7.753902 6.306616,14.062043 14.05869,14.062043 z"
         id="path1946"
         style="fill:#00d2c7;stroke-width:0.304756;fill-opacity:1" />
      <path
         d="M 90.53404,3.4402113 C 89.411016,2.2041217 87.729983,1.4663079 86.036149,1.4663079 c -3.038415,0 -5.221076,2.1396905 -5.840341,5.7291044 L 77.143984,25.738585 c -0.01799,0.125251 -0.14568,0.450734 -0.230091,0.593358 L 65.858267,37.909617 H 45.526179 L 34.469942,26.331334 C 34.385831,26.189019 34.257527,25.86262 34.237414,25.723041 L 31.187113,7.189622 c -0.608597,-3.5302913 -2.84581,-5.7233141 -5.839427,-5.7233141 -1.782516,0 -3.588194,0.818574 -4.713657,2.1363382 -0.94322,1.1047399 -1.343363,2.4651698 -1.126073,3.8347424 l 3.039939,18.5254965 c 0.01951,2.8644 1.401877,6.292293 3.373951,8.358233 l 12.759213,13.361713 v 16.969718 c 52.154786,-0.08426 -42.5029903,0 34.022328,0 V 47.683136 L 85.463209,34.320812 c 1.972379,-2.066243 3.353838,-5.494138 3.373342,-8.357927 L 91.87649,7.4373885 91.88319,7.3880175 C 92.020943,5.9517039 91.541868,4.5495224 90.53404,3.4402113 Z"
         id="path1948"
         style="fill:#00d2c7;stroke-width:0.304756;fill-opacity:1"
         sodipodi:nodetypes="ssccccccccsccccccccccccs" />
    </g>
    <g
       id="g1952"
       transform="matrix(0.20467677,0,0,0.20467677,1.7769279,0.84426559)">
</g>
    <g
       id="g1954"
       transform="matrix(0.20467677,0,0,0.20467677,1.7769279,0.84426559)">
</g>
    <g
       id="g1956"
       transform="matrix(0.20467677,0,0,0.20467677,1.7769279,0.84426559)">
</g>
    <g
       id="g1958"
       transform="matrix(0.20467677,0,0,0.20467677,1.7769279,0.84426559)">
</g>
    <g
       id="g1960"
       transform="matrix(0.20467677,0,0,0.20467677,1.7769279,0.84426559)">
</g>
    <g
       id="g1962"
       transform="matrix(0.20467677,0,0,0.20467677,1.7769279,0.84426559)">
</g>
    <g
       id="g1964"
       transform="matrix(0.20467677,0,0,0.20467677,1.7769279,0.84426559)">
</g>
    <g
       id="g1966"
       transform="matrix(0.20467677,0,0,0.20467677,1.7769279,0.84426559)">
</g>
    <g
       id="g1968"
       transform="matrix(0.20467677,0,0,0.20467677,1.7769279,0.84426559)">
</g>
    <g
       id="g1970"
       transform="matrix(0.20467677,0,0,0.20467677,1.7769279,0.84426559)">
</g>
    <g
       id="g1972"
       transform="matrix(0.20467677,0,0,0.20467677,1.7769279,0.84426559)">
</g>
    <g
       id="g1974"
       transform="matrix(0.20467677,0,0,0.20467677,1.7769279,0.84426559)">
</g>
    <g
       id="g1976"
       transform="matrix(0.20467677,0,0,0.20467677,1.7769279,0.84426559)">
</g>
    <g
       id="g1978"
       transform="matrix(0.20467677,0,0,0.20467677,1.7769279,0.84426559)">
</g>
    <g
       id="g1980"
       transform="matrix(0.20467677,0,0,0.20467677,1.7769279,0.84426559)">
</g>
  </g>
</svg>
