<svg
 width="141"
 height="208"
 viewBox="0 0 141 208"
 fill="none"
 xmlns="http://www.w3.org/2000/svg"
>
 <path
  d="M136.338 89.5375C135.419 89.5375 134.538 89.1724 133.888 88.5226C133.238 87.8728 132.873 86.9915 132.873 86.0725V55.4904C132.87 54.092 132.586 52.7085 132.038 51.4217C131.491 50.135 130.691 48.9711 129.685 47.999L113.227 32.1709C112.898 31.8556 112.636 31.4787 112.453 31.0618C112.271 30.6449 112.172 30.1962 112.163 29.7412C112.154 29.2863 112.235 28.834 112.401 28.4102C112.567 27.9864 112.814 27.5994 113.129 27.2714C113.445 26.9433 113.822 26.6805 114.239 26.4981C114.655 26.3157 115.104 26.2171 115.559 26.2081C116.014 26.1991 116.466 26.2798 116.89 26.4456C117.314 26.6114 117.701 26.859 118.029 27.1744L134.488 43.0094C136.164 44.6284 137.498 46.5672 138.411 48.7111C139.324 50.8549 139.797 53.1602 139.803 55.4904V86.0725C139.803 86.9915 139.438 87.8728 138.788 88.5226C138.138 89.1724 137.257 89.5375 136.338 89.5375Z"
  fill="#57565D"
 />
 <path
  d="M28.2988 75.9687C31.0202 69.7968 35.4742 64.5473 41.1204 60.857C46.7666 57.1666 53.3624 55.1941 60.1076 55.1786H80.8976C87.6428 55.1941 94.2386 57.1666 99.8848 60.857C105.531 64.5473 109.985 69.7968 112.706 75.9687H28.2988Z"
  fill="#ED456A"
 />
 <path
  d="M80.8965 41.3187V51.7137C80.8965 54.4706 79.8013 57.1146 77.8518 59.0641C75.9024 61.0135 73.2584 62.1087 70.5015 62.1087C67.7445 62.1087 65.1005 61.0135 63.1511 59.0641C61.2016 57.1146 60.1064 54.4706 60.1064 51.7137V41.3187H80.8965Z"
  fill="#FCC37A"
 />
 <path
  d="M94.7555 23.9937C94.7555 30.4265 92.2001 36.5959 87.6514 41.1446C83.1027 45.6933 76.9333 48.2487 70.5005 48.2487C64.0677 48.2487 57.8983 45.6933 53.3496 41.1446C48.8009 36.5959 46.2455 30.4265 46.2455 23.9937C46.2225 23.2748 46.2689 22.5553 46.3841 21.8454C46.9847 15.8296 49.8103 10.255 54.307 6.21409C58.8038 2.17317 64.6476 -0.0427433 70.6931 0.000624737C76.7386 0.0439928 82.55 2.34352 86.9883 6.44854C91.4266 10.5536 94.172 16.1681 94.6862 22.1919C94.7439 22.7906 94.7671 23.3922 94.7555 23.9937V23.9937Z"
  fill="#FFD9AA"
 />
 <path
  d="M94.6874 22.1919L91.2917 20.5287L71.4719 14.9154C68.4988 14.0678 65.3277 14.2385 62.4629 15.4005L49.7117 20.5287L46.3853 21.8454C46.9859 15.8296 49.8114 10.255 54.3082 6.21409C58.805 2.17317 64.6488 -0.0427433 70.6943 0.000624737C76.7398 0.0439928 82.5512 2.34352 86.9895 6.44854C91.4278 10.5536 94.1732 16.1681 94.6874 22.1919Z"
  fill="#57565D"
 />
 <path
  d="M112.081 186.849H28.9214C23.1804 186.849 18.5264 191.503 18.5264 197.244C18.5264 202.985 23.1804 207.639 28.9214 207.639H112.081C117.822 207.639 122.477 202.985 122.477 197.244C122.477 191.503 117.822 186.849 112.081 186.849Z"
  fill="#8B684B"
 />
 <path
  d="M108.928 186.849H32.0742L15.061 103.689H125.941L108.928 186.849Z"
  fill="#BC9A7E"
 />
 <path
  d="M127.139 103.689H13.861C10.9939 103.689 8.19716 102.8 5.85635 101.144C3.51553 99.4885 1.74581 97.1476 0.791038 94.4441C0.0527751 92.3536 -0.173239 90.1165 0.131968 87.9207C0.437175 85.7248 1.2647 83.6341 2.54507 81.8242C3.82545 80.0143 5.52131 78.538 7.49032 77.5191C9.45933 76.5002 11.644 75.9685 13.861 75.9687H127.139C129.356 75.9685 131.541 76.5002 133.51 77.5191C135.479 78.538 137.175 80.0143 138.455 81.8242C139.735 83.6341 140.563 85.7248 140.868 87.9207C141.173 90.1165 140.947 92.3536 140.209 94.4441C139.254 97.1476 137.484 99.4885 135.144 101.144C132.803 102.8 130.006 103.689 127.139 103.689Z"
  fill="#8B684B"
 />
</svg>
