<svg
 width="124"
 height="144"
 viewBox="0 0 124 144"
 fill="none"
 xmlns="http://www.w3.org/2000/svg"
>
 <path
  d="M124 118.852V143.249H0V118.852C0 104.527 9.62455 92.2165 23.278 86.8446C23.5018 86.8446 23.5018 86.6208 23.7256 86.6208C26.4116 85.5017 29.0975 84.8302 32.0072 84.3825L28.426 69.8338H95.3502L91.769 84.3825C94.4549 84.8302 97.1408 85.5017 99.6029 86.397C99.8267 86.397 99.8267 86.6208 100.051 86.6208C114.152 91.9926 124 104.303 124 118.852Z"
  fill="#47677C"
 />
 <path
  d="M66.7014 96.693L72.7447 130.043L62.001 140.787L51.2573 130.043L57.3006 96.693L51.2573 90.6497L62.001 79.906L72.7447 90.6497L66.7014 96.693Z"
  fill="#FF7683"
 />
 <path
  d="M36.2602 57.9711C39.9687 57.9711 42.975 54.2633 42.975 49.6895C42.975 45.1158 39.9687 41.408 36.2602 41.408C32.5517 41.408 29.5454 45.1158 29.5454 49.6895C29.5454 54.2633 32.5517 57.9711 36.2602 57.9711Z"
  fill="#EDC3A6"
 />
 <path
  d="M87.7407 57.9711C91.4492 57.9711 94.4555 54.2633 94.4555 49.6895C94.4555 45.1158 91.4492 41.408 87.7407 41.408C84.0322 41.408 81.0259 45.1158 81.0259 49.6895C81.0259 54.2633 84.0322 57.9711 87.7407 57.9711Z"
  fill="#EDC3A6"
 />
 <path
  d="M88.188 40.5127V58.8665C88.188 73.1914 76.549 85.0542 62.0002 85.0542C47.4515 85.0542 35.8125 73.4152 35.8125 58.8665V40.5127C35.8125 26.1878 47.4515 14.325 62.0002 14.325C69.1627 14.325 75.6537 17.2347 80.5778 21.9351C85.2782 26.8592 88.188 33.3502 88.188 40.5127Z"
  fill="#FCD5BB"
 />
 <path
  d="M50.1372 0L62 8.72924L73.1914 0L89.0831 35.3646H34.917L50.1372 0Z"
  fill="#47677C"
 />
 <path
  d="M97.3647 37.6029H26.6355C26.1878 37.6029 25.5164 37.379 25.0687 36.9314L18.5777 30.4404C17.6824 29.5451 17.6824 28.426 18.5777 27.5307C19.473 26.6354 20.5922 26.6354 21.4875 27.5307L27.307 33.3502H96.2456L102.065 27.5307C102.96 26.6354 104.08 26.6354 104.975 27.5307C105.87 28.426 105.87 29.5451 104.975 30.4404L98.4839 36.9314C98.26 37.379 97.8124 37.6029 97.3647 37.6029Z"
  fill="#47677C"
 />
</svg>
