<svg width="48" height="37" viewBox="0 0 48 37" fill="none" xmlns="http://www.w3.org/2000/svg">
<path d="M46.6756 9.06326L25.7551 1.19627C24.6151 0.767583 23.3851 0.767583 22.2459 1.19627L1.32461 9.06326C-0.440887 9.72696 -0.440887 12.5846 1.32461 13.2483L4.97186 14.6197C4.17161 15.8305 3.67961 17.3075 3.63086 18.925C2.90861 19.4317 2.40011 20.346 2.40011 21.4375C2.40011 22.4271 2.82611 23.2596 3.43961 23.7921L1.52486 34.3377C1.35836 35.2547 1.92836 36.125 2.69561 36.125H6.90386C7.67186 36.125 8.24186 35.2547 8.07536 34.3377L6.16061 23.7921C6.77411 23.2596 7.20011 22.4271 7.20011 21.4375C7.20011 20.3754 6.71486 19.4868 6.02561 18.9709C6.08261 17.5921 6.65861 16.373 7.57736 15.6001L22.2451 21.1162C22.9246 21.3714 24.2281 21.6899 25.7544 21.1162L46.6756 13.2492C48.4419 12.5846 48.4419 9.72787 46.6756 9.06326V9.06326ZM26.4594 23.9243C24.3196 24.7284 22.4964 24.2841 21.5401 23.9243L10.6636 19.8347L9.60011 30.25C9.60011 33.495 16.0471 36.125 24.0001 36.125C31.9531 36.125 38.4001 33.495 38.4001 30.25L37.3366 19.8338L26.4594 23.9243V23.9243Z" fill="#F5F8FF"/>
</svg>
