<svg
 viewBox="0 0 139 111"
 xmlns="http://www.w3.org/2000/svg"
>
 <path d="M26.1117 35.6836H112.859V73.2742H26.1117V35.6836Z" fill="#3B1C94" />
 <path
  d="M69.4855 90.6238C93.4402 90.6238 112.859 82.8562 112.859 73.2743C112.859 63.6924 93.4402 55.9248 69.4855 55.9248C45.5308 55.9248 26.1117 63.6924 26.1117 73.2743C26.1117 82.8562 45.5308 90.6238 69.4855 90.6238Z"
  fill="#3B1C94"
 />
 <path
  d="M66.8831 1.56308L1.82235 30.1898C-0.490915 31.3464 -0.490915 34.5272 1.82235 35.6838L66.8831 64.3105C68.618 64.8888 70.353 64.8888 72.0879 64.3105L137.149 35.6838C139.462 34.5272 139.462 31.3464 137.149 30.1898L72.0879 1.56308C70.353 0.695607 68.618 0.695607 66.8831 1.56308V1.56308Z"
  fill="#6435E9"
 />
 <path
  d="M125.003 36.8404L67.1716 27.009C65.7258 26.7198 63.9909 27.8764 63.7017 29.3222C63.4126 30.768 64.5692 32.503 66.015 32.7921L121.533 42.0452V84.8407C121.533 86.5756 122.69 87.7323 124.425 87.7323C126.16 87.7323 127.317 86.5756 127.317 84.8407V39.7319C127.317 38.2861 126.16 37.1295 125.003 36.8404Z"
  fill="#FF4034"
 />
 <path
  d="M124.425 90.6238C127.619 90.6238 130.209 88.0346 130.209 84.8407C130.209 81.6467 127.619 79.0575 124.425 79.0575C121.232 79.0575 118.642 81.6467 118.642 84.8407C118.642 88.0346 121.232 90.6238 124.425 90.6238Z"
  fill="#FF4034"
 />
 <path
  d="M133.1 93.5155C133.1 98.4312 124.425 110.865 124.425 110.865C124.425 110.865 115.751 98.4312 115.751 93.5155C115.751 88.5998 119.51 84.8407 124.425 84.8407C129.341 84.8407 133.1 88.5998 133.1 93.5155Z"
  fill="#FF4034"
 />
</svg>
