<svg width="40" height="44" viewBox="0 0 40 44" fill="none" xmlns="http://www.w3.org/2000/svg">
<path d="M4.59995 39.6C4.59768 36.6837 5.42351 33.8267 6.98137 31.3614C8.53923 28.8961 10.7651 26.9238 13.4 25.674V18.326C10.7651 17.0762 8.53923 15.1039 6.98137 12.6386C5.42351 10.1733 4.59768 7.31628 4.59995 4.4H0.199951V0H39.7999V4.4H35.3999C35.4022 7.31628 34.5764 10.1733 33.0185 12.6386C31.4607 15.1039 29.2348 17.0762 26.5999 18.326V25.674C29.2348 26.9238 31.4607 28.8961 33.0185 31.3614C34.5764 33.8267 35.4022 36.6837 35.3999 39.6H39.7999V44H0.199951V39.6H4.59995ZM8.99995 4.4C8.99943 6.93584 9.87507 9.39397 11.4787 11.3584C13.0823 13.3228 15.3153 14.6728 17.7999 15.18V22H22.1999V15.18C24.6846 14.6728 26.9176 13.3228 28.5212 11.3584C30.1248 9.39397 31.0005 6.93584 30.9999 4.4H8.99995Z" fill="#6D5F96"/>
</svg>
