<svg width="172" height="172" viewBox="0 0 172 172" fill="none" xmlns="http://www.w3.org/2000/svg">
  <g clip-path="url(#clip0)">
  <path d="M86 38.2222L52.5555 0H0L66.8889 81.2222L121.934 58.5278L86 38.2222Z" fill="#55ACEE"/>
  <path d="M119.444 0L86 38.2222L111.752 73.1573L117.615 66.0432L172 0H119.444Z" fill="#3B88C3"/>
  <path d="M111.131 76.5682C111.513 75.5314 111.757 74.4278 111.757 73.2572C111.757 70.7229 110.75 68.2924 108.958 66.5004C107.166 64.7084 104.736 63.7017 102.202 63.7017H70.3481C67.8138 63.7017 65.3833 64.7084 63.5913 66.5004C61.7993 68.2924 60.7926 70.7229 60.7926 73.2572C60.7926 74.4278 61.0315 75.5314 61.4185 76.5682C45.8525 85.2924 35.3127 101.924 35.3127 121.035C35.3127 149.181 58.1266 172 86.2772 172C114.423 172 137.242 149.181 137.242 121.035C137.237 101.924 126.702 85.2924 111.131 76.5682Z" fill="#FFAC33"/>
  <path d="M86.277 159.257C107.387 159.257 124.499 142.144 124.499 121.035C124.499 99.9252 107.387 82.8125 86.277 82.8125C65.1675 82.8125 48.0548 99.9252 48.0548 121.035C48.0548 142.144 65.1675 159.257 86.277 159.257Z" fill="#FFD983"/>
  <path d="M101.662 146.362C100.966 146.361 100.287 146.142 99.7218 145.736L86.0001 135.899L72.2831 145.736C71.7147 146.144 71.0321 146.363 70.3323 146.362C69.6325 146.36 68.9509 146.138 68.3845 145.727C67.818 145.316 67.3954 144.737 67.1767 144.072C66.958 143.407 66.9543 142.691 67.1661 142.024L72.2831 125.512L58.6903 115.932C58.1283 115.516 57.7113 114.934 57.4982 114.268C57.2851 113.602 57.2866 112.886 57.5026 112.221C57.7187 111.556 58.1382 110.976 58.702 110.563C59.2658 110.149 59.9453 109.923 60.6444 109.917L77.4813 109.893L82.842 93.792C83.0613 93.1263 83.4851 92.5467 84.053 92.1359C84.6209 91.7251 85.3039 91.5039 86.0048 91.5039C86.7058 91.5039 87.3888 91.7251 87.9567 92.1359C88.5246 92.5467 88.9484 93.1263 89.1677 93.792L94.4376 109.893L111.361 109.917C112.061 109.92 112.743 110.144 113.309 110.558C113.875 110.971 114.296 111.552 114.512 112.218C114.729 112.885 114.729 113.602 114.514 114.269C114.299 114.936 113.88 115.518 113.315 115.932L99.7171 125.512L104.834 142.024C104.995 142.523 105.035 143.053 104.951 143.57C104.868 144.088 104.663 144.578 104.354 145.001C104.044 145.425 103.639 145.769 103.171 146.005C102.703 146.241 102.186 146.364 101.662 146.362Z" fill="#FFAC33"/>
  </g>
  <defs>
  <clipPath id="clip0">
  <rect width="172" height="172" fill="white"/>
  </clipPath>
  </defs>
  </svg>
  