<svg
 viewBox="0 0 141 141"
 xmlns="http://www.w3.org/2000/svg"
>
 <path
  opacity="0.5"
  d="M70.5 7.83337C58.1057 7.83337 45.9898 11.5087 35.6843 18.3946C25.3788 25.2805 17.3467 35.0677 12.6036 46.5185C7.8605 57.9694 6.61949 70.5696 9.03749 82.7257C11.4555 94.8818 17.4239 106.048 26.188 114.812C34.9521 123.576 46.1182 129.545 58.2744 131.963C70.4305 134.381 83.0307 133.14 94.4815 128.396C105.932 123.653 115.72 115.621 122.605 105.316C129.491 95.0103 133.167 82.8943 133.167 70.5C133.167 53.8798 126.564 37.9403 114.812 26.188C103.06 14.4357 87.1203 7.83337 70.5 7.83337V7.83337ZM105.75 55.93C105.75 57.3244 105.337 58.6874 104.562 59.8468C103.787 61.0062 102.686 61.9098 101.398 62.4434C100.11 62.977 98.6922 63.1166 97.3247 62.8446C95.9571 62.5726 94.7009 61.9011 93.7149 60.9151C92.729 59.9292 92.0575 58.673 91.7855 57.3054C91.5135 55.9379 91.6531 54.5203 92.1867 53.2321C92.7203 51.9439 93.6239 50.8428 94.7833 50.0682C95.9426 49.2935 97.3057 48.88 98.7001 48.88C100.57 48.88 102.363 49.6228 103.685 50.9449C105.007 52.2671 105.75 54.0603 105.75 55.93V55.93ZM44.8459 62.98C43.4515 62.98 42.0885 62.5666 40.9291 61.7919C39.7697 61.0172 38.8661 59.9162 38.3325 58.628C37.7989 57.3397 37.6593 55.9222 37.9313 54.5547C38.2034 53.1871 38.8748 51.9309 39.8608 50.9449C40.8467 49.959 42.1029 49.2875 43.4705 49.0155C44.8381 48.7435 46.2556 48.8831 47.5438 49.4167C48.832 49.9503 49.9331 50.8539 50.7077 52.0133C51.4824 53.1726 51.8959 54.5357 51.8959 55.93C51.8961 56.8692 51.7087 57.7989 51.3446 58.6646C50.9806 59.5304 50.4472 60.3146 49.7759 60.9714C49.1046 61.6281 48.3088 62.1441 47.4353 62.489C46.5618 62.834 45.6281 63.0009 44.6892 62.98H44.8459ZM99.6792 92.4725C100.302 93.3036 100.57 94.3481 100.423 95.3764C100.276 96.4048 99.7269 97.3326 98.8959 97.9559C98.0649 98.5791 97.0203 98.8467 95.992 98.6998C94.9637 98.5529 94.0358 98.0036 93.4125 97.1725C90.828 93.7135 87.4631 90.9139 83.5917 89.0015C79.7203 87.0892 75.452 86.1184 71.1344 86.168C66.8167 86.2176 62.5719 87.2863 58.7455 89.2871C54.9191 91.2879 51.6194 94.1642 49.115 97.6817C48.5126 98.5283 47.5984 99.1009 46.5738 99.2735C45.5491 99.4461 44.4979 99.2046 43.6513 98.6021C42.8047 97.9996 42.2321 97.0855 42.0595 96.0609C41.8869 95.0362 42.1284 93.985 42.7309 93.1384C45.95 88.6163 50.1915 84.9183 55.1101 82.3456C60.0287 79.7729 65.4854 78.3981 71.0358 78.3332C76.5863 78.2683 82.0736 79.5151 87.051 81.9722C92.0285 84.4292 96.3553 88.027 99.6792 92.4725V92.4725Z"
  fill="#E2D8FF"
 />
</svg>
