<svg
 width="35"
 height="59"
 viewBox="0 0 35 59"
 xmlns="http://www.w3.org/2000/svg"
>
 <path
  d="M1.52315 1.53001C1.04032 2.01185 0.657256 2.58419 0.395894 3.21426C0.134532 3.84433 0 4.51976 0 5.20189C0 5.88401 0.134532 6.55944 0.395894 7.18951C0.657256 7.81958 1.04032 8.39192 1.52315 8.87376L21.7315 29.0821L1.52315 49.2904C0.549305 50.2643 0.00220537 51.5851 0.00220537 52.9623C0.00220537 54.3395 0.549305 55.6603 1.52315 56.6342C2.49699 57.608 3.8178 58.1551 5.19502 58.1551C6.57224 58.1551 7.89305 57.608 8.8669 56.6342L32.7731 32.7279C33.256 32.2461 33.639 31.6737 33.9004 31.0437C34.1618 30.4136 34.2963 29.7382 34.2963 29.0561C34.2963 28.3739 34.1618 27.6985 33.9004 27.0684C33.639 26.4384 33.256 25.866 32.7731 25.3842L8.8669 1.47793C6.88773 -0.501239 3.5544 -0.501238 1.52315 1.53001Z"
  fill="#CFCFCF"
 />
</svg>
