<svg
 width="42"
 height="42"
 viewBox="0 0 42 42"
 xmlns="http://www.w3.org/2000/svg"
>
 <path
  d="M17.1498 1.90709C17.1502 1.50972 17.0263 1.12218 16.7955 0.798707C16.5647 0.475234 16.2385 0.232013 15.8626 0.103082C15.4868 -0.0258484 15.08 -0.0340371 14.6992 0.0796623C14.3185 0.193362 13.9828 0.423259 13.7392 0.737182L0.401454 17.8857C0.141264 18.2201 0 18.6318 0 19.0556C0 19.4793 0.141264 19.891 0.401454 20.2255L13.7392 37.374C13.9828 37.6879 14.3185 37.9178 14.6992 38.0315C15.08 38.1452 15.4868 38.137 15.8626 38.0081C16.2385 37.8791 16.5647 37.6359 16.7955 37.3124C17.0263 36.989 17.1502 36.6014 17.1498 36.2041V28.6016C27.3989 28.815 32.3224 30.7604 34.7956 32.8753C37.1468 34.8855 37.5775 37.2501 38.0252 39.7271L38.1415 40.3654C38.227 40.8222 38.4764 41.2319 38.8429 41.5176C39.2094 41.8033 39.6676 41.9452 40.1314 41.9166C40.5952 41.888 41.0326 41.691 41.3613 41.3625C41.6899 41.034 41.8872 40.5967 41.916 40.133C42.2419 34.897 41.7522 27.3097 38.0538 20.9629C34.4641 14.8028 27.9991 10.066 17.1498 9.57056V1.90709Z"
  fill="#F5F8FF"
 />
</svg>
