<svg
   width="100mm"
   height="100mm"
   viewBox="0 0 100 100"
   version="1.1"
   id="svg5"
   inkscape:version="1.1 (c68e22c387, 2021-05-23)"
   sodipodi:docname="espionage.svg"
   xmlns:inkscape="http://www.inkscape.org/namespaces/inkscape"
   xmlns:sodipodi="http://sodipodi.sourceforge.net/DTD/sodipodi-0.dtd"
   xmlns="http://www.w3.org/2000/svg"
   xmlns:svg="http://www.w3.org/2000/svg">
  <sodipodi:namedview
     id="namedview7"
     pagecolor="#ffffff"
     bordercolor="#666666"
     borderopacity="1.0"
     inkscape:pageshadow="2"
     inkscape:pageopacity="0.0"
     inkscape:pagecheckerboard="0"
     inkscape:document-units="mm"
     showgrid="false"
     inkscape:zoom="0.5499273"
     inkscape:cx="-22.730277"
     inkscape:cy="475.5174"
     inkscape:window-width="1902"
     inkscape:window-height="1033"
     inkscape:window-x="0"
     inkscape:window-y="0"
     inkscape:window-maximized="0"
     inkscape:current-layer="g4398"
     fit-margin-top="0"
     fit-margin-left="0"
     fit-margin-right="0"
     fit-margin-bottom="0" />
  <defs
     id="defs2"><clipPath
   clipPathUnits="userSpaceOnUse"
   id="clipPath135">
  <rect
     style="fill:#ffffff;stroke-width:0.264583"
     id="rect137"
     width="139.69073"
     height="108.81783"
     x="201.40207"
     y="59.536083" />
</clipPath>
<clipPath
   clipPathUnits="userSpaceOnUse"
   id="clipPath333">
  <rect
     style="fill:#55ff99;stroke-width:0.513847"
     id="rect335"
     width="111.68427"
     height="107.81107"
     x="229.40857"
     y="60.542839" />
</clipPath>

	
	
<clipPath
   clipPathUnits="userSpaceOnUse"
   id="clipPath4406">
  <path
     d="M 0,660 H 660 V 0 H 0 Z"
     id="path4404"
     inkscape:connector-curvature="0" />
</clipPath>
</defs>
  <g
     inkscape:label="Layer 1"
     inkscape:groupmode="layer"
     id="layer1"
     transform="translate(-52.601349,-96.006805)">
    <g
       id="g4737"
       style="fill:#e6e6e6"
       transform="matrix(0.13009586,0,0,0.13009586,69.439775,114.05477)" />
    <g
       id="g4739"
       style="fill:#e6e6e6"
       transform="matrix(0.13009586,0,0,0.13009586,69.439775,114.05477)" />
    <g
       id="g4741"
       style="fill:#e6e6e6"
       transform="matrix(0.13009586,0,0,0.13009586,69.439775,114.05477)" />
    <g
       id="g4743"
       style="fill:#e6e6e6"
       transform="matrix(0.13009586,0,0,0.13009586,69.439775,114.05477)" />
    <g
       id="g4745"
       style="fill:#e6e6e6"
       transform="matrix(0.13009586,0,0,0.13009586,69.439775,114.05477)" />
    <g
       id="g4747"
       style="fill:#e6e6e6"
       transform="matrix(0.13009586,0,0,0.13009586,69.439775,114.05477)" />
    <g
       id="g4749"
       style="fill:#e6e6e6"
       transform="matrix(0.13009586,0,0,0.13009586,69.439775,114.05477)" />
    <g
       id="g4751"
       style="fill:#e6e6e6"
       transform="matrix(0.13009586,0,0,0.13009586,69.439775,114.05477)" />
    <g
       id="g4753"
       style="fill:#e6e6e6"
       transform="matrix(0.13009586,0,0,0.13009586,69.439775,114.05477)" />
    <g
       id="g4755"
       style="fill:#e6e6e6"
       transform="matrix(0.13009586,0,0,0.13009586,69.439775,114.05477)" />
    <g
       id="g4757"
       style="fill:#e6e6e6"
       transform="matrix(0.13009586,0,0,0.13009586,69.439775,114.05477)" />
    <g
       id="g4759"
       style="fill:#e6e6e6"
       transform="matrix(0.13009586,0,0,0.13009586,69.439775,114.05477)" />
    <g
       id="g4761"
       style="fill:#e6e6e6"
       transform="matrix(0.13009586,0,0,0.13009586,69.439775,114.05477)" />
    <g
       id="g4763"
       style="fill:#e6e6e6"
       transform="matrix(0.13009586,0,0,0.13009586,69.439775,114.05477)" />
    <g
       id="g4765"
       style="fill:#e6e6e6"
       transform="matrix(0.13009586,0,0,0.13009586,69.439775,114.05477)" />
  </g>
  <g
     inkscape:groupmode="layer"
     id="layer2"
     inkscape:label="Layer 2">
    <g
       id="g1952"
       transform="matrix(0.20467677,0,0,0.20467677,1.7769279,0.84426559)">
</g>
    <g
       id="g1954"
       transform="matrix(0.20467677,0,0,0.20467677,1.7769279,0.84426559)">
</g>
    <g
       id="g1956"
       transform="matrix(0.20467677,0,0,0.20467677,1.7769279,0.84426559)">
</g>
    <g
       id="g1958"
       transform="matrix(0.20467677,0,0,0.20467677,1.7769279,0.84426559)">
</g>
    <g
       id="g1960"
       transform="matrix(0.20467677,0,0,0.20467677,1.7769279,0.84426559)">
</g>
    <g
       id="g1962"
       transform="matrix(0.20467677,0,0,0.20467677,1.7769279,0.84426559)">
</g>
    <g
       id="g1964"
       transform="matrix(0.20467677,0,0,0.20467677,1.7769279,0.84426559)">
</g>
    <g
       id="g1966"
       transform="matrix(0.20467677,0,0,0.20467677,1.7769279,0.84426559)">
</g>
    <g
       id="g1968"
       transform="matrix(0.20467677,0,0,0.20467677,1.7769279,0.84426559)">
</g>
    <g
       id="g1970"
       transform="matrix(0.20467677,0,0,0.20467677,1.7769279,0.84426559)">
</g>
    <g
       id="g1972"
       transform="matrix(0.20467677,0,0,0.20467677,1.7769279,0.84426559)">
</g>
    <g
       id="g1974"
       transform="matrix(0.20467677,0,0,0.20467677,1.7769279,0.84426559)">
</g>
    <g
       id="g1976"
       transform="matrix(0.20467677,0,0,0.20467677,1.7769279,0.84426559)">
</g>
    <g
       id="g1978"
       transform="matrix(0.20467677,0,0,0.20467677,1.7769279,0.84426559)">
</g>
    <g
       id="g1980"
       transform="matrix(0.20467677,0,0,0.20467677,1.7769279,0.84426559)">
</g>
    <g
       id="g4398"
       inkscape:label="private-detective-stencil-freesvg.org"
       transform="matrix(0.35277777,0,0,-0.35277777,-81.782138,206.82126)">
      <path
         d="m 318.89465,408.04093 c 3.19299,0.43944 9.08084,-1.18616 7.68535,-6.76812 3.41987,7.5056 -4.58108,10.4158 -7.68535,6.76812 m 13.64945,-18.35344 c 3.36442,-0.37336 6.42617,-0.20425 8.25879,2.17918 2.06505,-1.29938 4.12964,-2.59968 6.19422,-3.89951 -2.10248,2.90603 -4.20542,5.8116 -6.30835,8.71764 -1.23468,-3.8131 -4.15735,-5.93684 -8.14466,-6.99731 m -13.24882,57.9927 0.0221,-0.098 20.34178,0.89367 c 1.14689,-3.51737 2.29424,-7.03567 3.44112,-10.55304 -0.19037,-12.08853 -8.82761,-17.50922 -20.64721,-20.41756 18.87652,0.41125 32.93537,5.81761 27.29982,31.6591 14.07132,5.27605 28.14219,10.55257 42.21305,15.82908 z m -0.46439,-0.11968 0.46208,0.11968 -0.51061,-0.12152 z m -21.76547,-101.84985 -10.99663,11.46426 c -10.70783,11.15698 -13.58706,27.00316 -8.26849,40.73717 4.20032,10.84645 3.86485,21.71278 -0.9981,32.27968 -6.23349,13.54548 -4.65317,29.22947 4.65316,41.59063 l 8.60305,11.42776 2.57056,4.75389 -14.057,-15.952 c -3.77105,-4.27841 -6.66646,-8.95699 -8.65572,-13.80562 -13.40131,0.35718 -21.30107,2.85844 -21.30107,7.62204 0,7.90022 21.71971,20.05852 54.24938,31.73904 0.89274,-3.04327 2.6177,-5.74321 5.13928,-8.01482 3.89859,-3.51136 8.61552,-5.02467 13.82965,-4.4346 34.63769,3.91892 76.17841,13.85692 106.94339,30.38792 4.49375,2.41484 6.99223,7.1216 6.75056,11.93697 24.00286,1.78502 39.19612,-0.47271 39.19612,-7.07956 0,-12.0622 -50.6151,-34.04853 -113.05488,-49.10733 -5.05888,-1.2199 -10.03828,-2.3557 -14.92156,-3.40925 15.74406,2.18982 33.68487,5.60645 52.73005,10.20001 16.35355,3.94387 31.89199,8.36415 45.92728,12.95586 3.45452,-13.61109 2.16994,-28.14081 -1.91117,-41.10729 -2.2485,-7.13779 -3.66385,-14.12817 -4.24978,-21.06033 l 18.90379,21.18971 2.29378,-89.4716 -91.5348,-51.84701 0.59655,6.98807 -10.34649,21.00071 9.40523,9.51982 1.88345,-19.49016 2.36124,27.63482 7.68535,8.61506 c -1.94768,0.53972 -4.05339,0.61411 -6.15586,0.12661 -1.88992,-0.43712 -3.80525,-0.79155 -5.73675,-1.05539 -4.89068,-0.67002 -8.88492,-2.60846 -12.31218,-5.97056 -9.42186,-9.25043 -25.3905,-0.35627 -21.92349,11.76784 0.44267,1.54752 0.73193,3.04143 0.86963,4.52795 0.42882,4.63422 -2.54468,8.80913 -7.25238,10.18475 l -0.0749,0.0217 -20.97345,-33.26762 -4.95491,2.93746 21.1897,33.93856 1.92966,0.80356 -3.62965,1.66996 c 1.16768,2.66391 1.34558,7.48758 -1.17693,10.27024 -2.52205,2.78451 -11.70685,1.25733 -13.88049,8.78326 3.62365,6.16094 6.04358,11.74474 7.87019,18.21944 l -6.10919,18.87283 4.24099,1.09744 c -1.26611,2.47815 -1.76839,5.15498 -1.52164,8.08228 l 0.62797,7.4386 c -10.29611,-1.49761 -19.70179,-2.48601 -27.92594,-2.95224 -0.65892,-8.58919 1.49114,-17.0855 6.35964,-24.6983 8.27081,-12.93137 8.89093,-28.17546 1.69631,-41.73758 -5.79867,-10.93009 -5.98951,-23.928 -0.0859,-35.51841 z m 130.4569,193.78758 c -7.15395,14.04499 -15.34944,27.13486 -23.99315,39.35785 -3.54602,5.01591 -10.00824,6.76212 -15.59851,4.21419 -2.04287,-0.93063 -4.06401,-1.95738 -6.05744,-3.09179 -13.1393,-7.47187 -26.65891,-9.97682 -41.60172,-7.70984 -3.10704,0.47224 -6.21824,0.82389 -9.33314,1.04661 -8.10677,0.58454 -15.35175,-3.94248 -18.38301,-11.48366 -7.14888,-17.78878 -9.17834,-36.0378 -8.39142,-55.30431 32.71404,-2.29008 92.12718,7.69274 123.35839,32.97095"
         style="fill:#e2d8ff;fill-opacity:1.0;fill-rule:evenodd;stroke:none;stroke-width:0.462082"
         id="path4500"
         inkscape:connector-curvature="0" />
    </g>
  </g>
</svg>
