<svg width="88" height="108" viewBox="0 0 88 108" fill="none" xmlns="http://www.w3.org/2000/svg">
<path d="M58.5 97.5H68.1667V87.8334H58.5V97.5ZM77.8333 39.5H87.5V29.8334H77.8333V39.5ZM0.5 10.5V97.5H29.5V87.8334H10.1667V20.1667H29.5V10.5H0.5ZM77.8333 10.5V20.1667H87.5V10.5H77.8333ZM39.1667 107.167H48.8333V0.833374H39.1667V107.167ZM77.8333 78.1667H87.5V68.5H77.8333V78.1667ZM58.5 20.1667H68.1667V10.5H58.5V20.1667ZM77.8333 58.8334H87.5V49.1667H77.8333V58.8334ZM77.8333 97.5H87.5V87.8334H77.8333V97.5Z" fill="#200F50"/>
</svg>
