<svg width="136" height="163" viewBox="0 0 136 163" fill="none" xmlns="http://www.w3.org/2000/svg">
  <path d="M135.333 81.4998C135.333 72.5379 127.784 65.2498 118.5 65.2498H110.083V40.8748C110.083 18.4741 91.2047 0.249756 68 0.249756C44.7952 0.249756 25.9167 18.4741 25.9167 40.8748V65.2498H17.5C8.21641 65.2498 0.666656 72.5379 0.666656 81.4998V146.5C0.666656 155.462 8.21641 162.75 17.5 162.75H118.5C127.784 162.75 135.333 155.462 135.333 146.5V81.4998ZM42.75 40.8748C42.75 27.436 54.0788 16.4998 68 16.4998C81.9212 16.4998 93.25 27.436 93.25 40.8748V65.2498H42.75V40.8748Z" fill="#E2D8FF"/>
  </svg>
  