<svg width="134" height="130" viewBox="0 0 134 130" fill="none" xmlns="http://www.w3.org/2000/svg">
<path opacity="0.4" d="M75.7854 3.5346C70.9279 -1.1782 63.0554 -1.1782 58.1979 3.5346L3.64313 56.4723C-1.21438 61.1851 -1.21438 68.8149 3.64313 73.5196L58.2146 126.465C63.0721 131.178 70.9363 131.178 75.7854 126.465L130.357 73.5196C135.214 68.8068 135.214 61.1769 130.357 56.4723L75.7854 3.5346ZM46.0122 49.0212C45.7423 49.0247 45.4744 48.9748 45.225 48.8745C44.9756 48.7741 44.75 48.6255 44.5618 48.4376C44.3737 48.2498 44.227 48.0266 44.1308 47.7819C44.0346 47.5371 43.9908 47.2759 44.0023 47.0142C44.7979 33.2414 56.414 28.4393 67.0335 28.4393C78.725 28.4393 89.4115 34.3709 89.4115 46.6404C89.4115 55.416 84.0934 59.5925 78.993 63.3546C72.8206 67.8967 70.5342 69.595 70.5342 75.4291V76.2823C70.5342 76.821 70.3137 77.3377 69.921 77.7187C69.5284 78.0996 68.9958 78.3136 68.4405 78.3136H61.6567C61.1072 78.3137 60.5797 78.1042 60.188 77.7302C59.7963 77.3562 59.5718 76.8479 59.563 76.3148L59.5295 74.5515C59.2113 67.0192 63.6751 62.3795 69.3115 58.4062C74.2528 54.7984 77.3934 52.4258 77.3934 47.2661C77.3934 40.5625 72.1339 37.7755 66.3886 37.7755C59.6635 37.7755 55.8948 41.6595 55.1494 46.9898C54.9986 48.103 54.0774 49.0212 52.9216 49.0212H46.0122ZM65.4841 101.374C60.5931 101.374 57.0338 98.1724 57.0338 93.8415C57.0338 89.3562 60.5931 86.2035 65.4925 86.2035C70.5929 86.2035 74.102 89.3562 74.102 93.8415C74.102 98.1724 70.5845 101.374 65.4841 101.374Z" fill="#6D5F96"/>
</svg>
