<svg width="31" height="27" viewBox="0 0 31 27" fill="none" xmlns="http://www.w3.org/2000/svg">
<path d="M29.3095 12.0188C29.6472 11.7869 29.8977 11.4633 30.0259 11.0935C30.1541 10.7237 30.1535 10.3262 30.0243 9.9567C29.895 9.58721 29.6435 9.26428 29.3051 9.03318C28.9667 8.80209 28.5583 8.67442 28.1372 8.66808L19.9588 8.38326C19.9186 8.38071 19.88 8.36748 19.8478 8.34519C19.8155 8.3229 19.791 8.29248 19.7771 8.25761L16.9509 1.22105C16.809 0.86306 16.5511 0.553936 16.2122 0.335533C15.8733 0.117131 15.4698 0 15.0563 0C14.6428 0 14.2393 0.117131 13.9004 0.335533C13.5615 0.553936 13.3036 0.86306 13.1616 1.22105L10.3446 8.28274C10.3307 8.31761 10.3061 8.34803 10.2739 8.37032C10.2416 8.39261 10.2031 8.40584 10.1628 8.4084L1.9844 8.69321C1.56331 8.69955 1.15493 8.82722 0.816518 9.05831C0.478108 9.28941 0.22664 9.61234 0.0973753 9.98183C-0.0318896 10.3513 -0.0324695 10.7488 0.0957167 11.1187C0.223903 11.4885 0.474427 11.812 0.812162 12.044L7.22769 16.6931C7.2598 16.7164 7.2838 16.7479 7.29672 16.7836C7.30964 16.8193 7.31092 16.8578 7.30039 16.8941L5.09221 24.1066C4.97778 24.4739 4.98887 24.8648 5.12396 25.226C5.25905 25.5873 5.51159 25.9014 5.84722 26.1257C6.18284 26.3499 6.58527 26.4735 6.99974 26.4794C7.41422 26.4854 7.82062 26.3735 8.16367 26.159L14.9427 21.9705C14.9761 21.9493 15.0157 21.9379 15.0563 21.9379C15.0969 21.9379 15.1365 21.9493 15.1699 21.9705L21.9489 26.159C22.2873 26.3808 22.6922 26.5 23.1075 26.5C23.5227 26.5 23.9277 26.3808 24.2661 26.159C24.6018 25.9368 24.8546 25.6242 24.9897 25.2642C25.1247 24.9041 25.1355 24.5144 25.0203 24.1485L22.794 16.9109C22.7822 16.8746 22.7828 16.8358 22.7959 16.7998C22.8089 16.7638 22.8336 16.7324 22.8667 16.7099L29.3095 12.0188Z" fill="#FFC42D"/>
</svg>
