<svg
 width="1920"
 height="1080"
 viewBox="0 0 1920 1080"
 xmlns="http://www.w3.org/2000/svg"
>
 <path
  d="M1526.5 332.5C1471.5 149 1345.5 139.5 1378.5 0H1920V1078.5C1814.56 1072.83 1594.5 1080 1540.5 1080C1540.5 1013 1505.01 975 1460.5 848.5C1416 722 1581.5 516 1526.5 332.5Z"
  fill="#3B1C94"
 />
 <path
  d="M482 286.5C494.711 109.368 409.011 166.416 373.084 8.39233e-05C249 -7.62939e-05 114.5 8.39233e-05 0 0V1080H477C447.5 882.5 387 845.5 380 643C373 440.5 469.289 463.632 482 286.5Z"
  fill="#3B1C94"
 />
</svg>
